<svg width="176" height="32" viewBox="0 0 176 32" fill="none" xmlns="http://www.w3.org/2000/svg">
<g clip-path="url(#clip0_334_6316)">
<path fill-rule="evenodd" clip-rule="evenodd" d="M0.0702367 28.8205C0.0139111 29.0218 -0.0149936 29.2304 -0.015625 29.4402C-0.0135591 30.1199 0.246404 30.771 0.707286 31.2508C1.16817 31.7307 1.79237 32.0001 2.44313 32.0001H25.8598C26.4947 29.3369 27.1295 26.6682 27.7644 23.994H17.0708C18.3821 18.4936 19.696 12.9849 21.0126 7.46818H28.6776C29.2553 4.98155 29.8563 2.49492 30.4495 0.000147726H10.3111C9.35548 -0.00237342 8.42654 0.329438 7.67249 0.942674C6.91843 1.55591 6.38271 2.41524 6.15077 3.38358C4.13693 11.8517 2.1153 20.3307 0.0858512 28.8205M30.1607 28.8205C32.3411 19.2056 34.5266 9.58791 36.7174 -0.0324707H52.5549C50.6503 7.95734 48.7406 15.9553 46.8256 23.9614H54.8497C54.2149 26.6301 53.58 29.2988 52.9452 31.9675H32.557C32.1889 31.9616 31.8265 31.8706 31.4961 31.7008C31.1658 31.5311 30.8755 31.287 30.6463 30.986C30.4171 30.685 30.2547 30.3346 30.1707 29.9602C30.0868 29.5857 30.0833 29.1965 30.1607 28.8205ZM78.9767 -0.0243099H67.003C66.047 -0.0282615 65.1174 0.303013 64.3631 0.916474C63.6087 1.52994 63.0733 2.39008 62.8426 3.35912C60.5686 12.8925 58.292 22.4314 56.0128 31.9757H71.3273C71.9569 29.3124 72.597 26.6437 73.2475 23.9696H80.0149V31.9757H95.2982V-0.0243099H80.0149V16.526H75.0037C76.315 11.0255 77.6316 5.51692 78.9533 0.000147726M122.368 32.0001V23.994H115.593C114.963 26.6627 114.328 29.3314 113.688 32.0001H98.4204C100.689 22.4722 102.968 12.9333 105.258 3.38358C105.489 2.41454 106.024 1.55442 106.779 0.940957C107.533 0.327496 108.462 -0.00380392 109.418 0.000147726H121.377C120.065 5.50605 118.751 11.0147 117.435 16.526H122.415V-0.0243099H137.745V31.9757H122.391M174.095 16.4852C174.15 16.2836 174.179 16.0752 174.181 15.8656C174.181 15.5273 174.117 15.1923 173.994 14.8797C173.87 14.5672 173.688 14.2831 173.459 14.0439C173.23 13.8047 172.958 13.6149 172.659 13.4854C172.359 13.3559 172.039 13.2893 171.715 13.2893H161.068C161.528 11.3408 162.005 9.4004 162.473 7.43556H174.22L176 -0.0324707H151.803C150.848 -0.0307471 149.921 0.30266 149.168 0.91523C148.415 1.5278 147.878 2.38474 147.642 3.35099C146.768 7.02521 145.889 10.7049 145.004 14.39C144.964 14.5912 144.944 14.796 144.942 15.0014C144.94 15.3379 145.001 15.6715 145.123 15.983C145.245 16.2945 145.425 16.5777 145.652 16.8164C145.879 17.0551 146.149 17.2445 146.446 17.3738C146.744 17.503 147.063 17.5696 147.385 17.5696H156.509C156.01 19.6975 155.495 21.8335 154.948 23.9614H142.694C142.054 26.6301 141.419 29.2988 140.789 31.9675H167.055C168.012 31.9696 168.941 31.6366 169.695 31.0218C170.45 30.407 170.985 29.5458 171.215 28.5759C172.178 24.5593 173.138 20.5291 174.095 16.4852Z" fill="#FF0100"/>
</g>
<defs>
<clipPath id="clip0_334_6316">
<rect width="176" height="32" fill="white"/>
</clipPath>
</defs>
</svg>
