<svg width="41" height="14" viewBox="0 0 41 14" fill="none" xmlns="http://www.w3.org/2000/svg">
<g clip-path="url(#clip0_1190_423)">
<mask id="mask0_1190_423" style="mask-type:luminance" maskUnits="userSpaceOnUse" x="-1" y="-1" width="42" height="16">
<path d="M20.4968 0.885682L19.5064 0.000150096C18.8465 -0.0213594 18.1893 0.0912219 17.577 0.330662H16.1363C15.0565 0.318708 13.9784 0.419066 12.9206 0.63H10.3481C1.98731 0.63 -0.0449829 4.83312 -0.0449829 7.93869C-0.0449829 10.9133 2.32819 12.9899 4.53415 14.0002H7.97492C5.06151 13.1084 2.18668 10.8821 2.18668 7.93869C2.18668 3.39258 5.82687 1.07901 12.6248 0.698607C8.16789 1.76498 6.95879 4.95784 6.95879 7.80149C6.95879 10.2959 8.24505 12.5284 10.9977 14.0002H14.014C12.6653 13.568 11.4893 12.7385 10.65 11.6273C9.81066 10.5161 9.34989 9.1787 9.33193 7.80149C9.33193 3.25539 11.7051 0.9418 17.339 0.430441C15.5575 1.32844 15.0623 3.64826 15.0623 7.65806C15.0623 10.7761 15.7633 13.0772 16.9917 14.0002H18.5353C17.2876 13.0772 17.4612 10.3895 17.4612 7.27766C17.4612 2.25762 17.2747 1.12889 20.4647 0.904389C23.6804 1.12889 23.7382 2.25762 23.7382 7.27766C23.7382 10.3957 23.6482 13.0772 22.4069 14.0002H23.944C25.1917 13.0772 25.8734 10.7699 25.8734 7.65806C25.8734 3.64826 25.3718 1.32844 23.5839 0.430441C29.2178 0.910619 31.5716 3.25539 31.5716 7.80149C31.5574 9.1761 31.1011 10.5121 30.2664 11.6233C29.4317 12.7345 28.2603 13.5654 26.9153 14.0002H29.9316C32.6392 12.5284 33.9577 10.2959 33.9577 7.80149C33.9577 4.95784 32.7486 1.76498 28.3045 0.698607C35.1153 1.09772 38.8905 3.39258 38.8905 7.93869C38.8905 10.9133 35.8421 13.1084 32.9222 14.0002H36.3694C38.5754 12.9899 40.9421 10.8821 40.9421 7.93869C40.9421 4.82065 38.9034 0.63 30.5555 0.63H27.9829C26.925 0.420194 25.847 0.319848 24.7672 0.330662H23.3202C22.7074 0.0926291 22.0505 -0.0198996 21.3908 0.000150096L20.4968 0.885682Z" fill="white"/>
</mask>
<g mask="url(#mask0_1190_423)">
<path d="M41 0.000244141H3.05176e-05V14.0002H41V0.000244141Z" fill="url(#paint0_linear_1190_423)"/>
</g>
</g>
<defs>
<linearGradient id="paint0_linear_1190_423" x1="0.175157" y1="7.79073" x2="40.9142" y2="7.79073" gradientUnits="userSpaceOnUse">
<stop stop-color="#BE1622"/>
<stop offset="0.53" stop-color="#FFED00"/>
<stop offset="1" stop-color="#F39200"/>
</linearGradient>
<clipPath id="clip0_1190_423">
<rect width="41" height="14" fill="white"/>
</clipPath>
</defs>
</svg>
