<svg width="50" height="50" viewBox="0 0 50 50" fill="none" xmlns="http://www.w3.org/2000/svg">
<circle cx="25" cy="25" r="25" fill="#6EB513"/>
<g clip-path="url(#clip0_1190_429)">
<path d="M20.511 32.812C19.785 31.5099 19.401 29.914 19.401 28.186C19.401 25.282 21.915 22.918 24.999 22.918C28.089 22.918 30.597 25.282 30.597 28.186C30.597 28.516 30.867 28.786 31.197 28.786C31.5271 28.786 31.7971 28.516 31.7971 28.186C31.7971 24.616 28.749 21.718 24.9991 21.718C21.2491 21.718 18.201 24.622 18.201 28.186C18.201 30.118 18.639 31.9239 19.467 33.3999C20.277 34.846 20.841 35.512 21.879 36.5619C21.999 36.6819 22.149 36.7419 22.305 36.7419C22.455 36.7419 22.611 36.6879 22.719 36.5619C22.959 36.3339 22.959 35.9499 22.725 35.7159C21.801 34.786 21.285 34.192 20.511 32.812ZM18.327 15.892C20.385 14.77 22.629 14.2 25.011 14.2C27.399 14.2 29.397 14.71 31.695 15.898C31.785 15.94 31.875 15.964 31.971 15.964C32.187 15.964 32.397 15.844 32.505 15.64C32.655 15.346 32.541 14.98 32.247 14.83C29.799 13.564 27.567 13 25.011 13C22.431 13 19.989 13.618 17.751 14.836C17.457 14.998 17.355 15.358 17.511 15.652C17.673 15.946 18.033 16.048 18.327 15.892Z" fill="white"/>
<path d="M24.957 18.7959C21.087 18.7959 17.547 20.9619 15.945 24.3099C15.399 25.4439 15.123 26.7519 15.123 28.1919C15.123 29.8119 15.411 31.3599 15.999 32.9379C16.119 33.2499 16.461 33.4059 16.773 33.2918C17.085 33.1719 17.241 32.8299 17.127 32.5178C16.413 30.6039 16.329 29.1279 16.329 28.1919C16.329 26.9319 16.563 25.7979 17.031 24.8259C18.435 21.8859 21.549 19.9899 24.963 19.9899C29.757 19.9899 33.657 23.6679 33.657 28.1919C33.657 29.4819 32.5349 30.5259 31.161 30.5259C29.787 30.5259 28.665 29.4759 28.665 28.1919C28.665 26.2419 27.009 24.6579 24.969 24.6579C22.929 24.6579 21.273 26.2419 21.273 28.1919C21.273 30.5619 22.197 32.7879 23.871 34.4559C25.167 35.7459 26.415 36.4539 28.329 36.9759C28.3769 36.9939 28.4309 36.9999 28.4849 36.9999C28.7489 36.9999 28.9889 36.8259 29.0609 36.5619C29.1509 36.2439 28.959 35.9139 28.6409 35.8239C26.9489 35.3619 25.8449 34.7379 24.7109 33.6099C23.2649 32.1699 22.4669 30.2439 22.4669 28.1979C22.4669 26.9079 23.5889 25.8639 24.9629 25.8639C26.3369 25.8639 27.4589 26.9139 27.4589 28.1979C27.4589 30.1479 29.1209 31.7319 31.1549 31.7319C33.1889 31.7319 34.8509 30.1479 34.8509 28.1979C34.851 23.0139 30.411 18.7959 24.957 18.7959Z" fill="white"/>
<path d="M35.691 21.28C34.4969 19.612 32.9849 18.304 31.191 17.38C27.411 15.436 22.587 15.4421 18.813 17.392C17.013 18.322 15.495 19.642 14.307 21.322C14.115 21.592 14.181 21.964 14.451 22.156C14.559 22.228 14.679 22.264 14.799 22.264C14.985 22.264 15.171 22.1801 15.291 22.0181C16.365 20.4941 17.739 19.3001 19.365 18.4601C22.803 16.6841 27.201 16.6781 30.645 18.4481C32.265 19.2761 33.633 20.4641 34.713 21.9761C34.905 22.2461 35.283 22.3061 35.553 22.1141C35.823 21.922 35.883 21.55 35.691 21.28ZM32.157 33.208C31.677 33.292 31.191 33.322 30.903 33.322C29.703 33.322 28.707 33.04 27.861 32.464C26.403 31.474 25.533 29.878 25.533 28.192C25.533 27.862 25.263 27.592 24.933 27.592C24.603 27.592 24.333 27.862 24.333 28.192C24.333 30.28 25.401 32.248 27.183 33.46C28.221 34.162 29.475 34.522 30.903 34.522C31.071 34.522 31.665 34.516 32.367 34.39C32.691 34.3299 32.913 34.018 32.853 33.694C32.793 33.37 32.481 33.148 32.157 33.208Z" fill="white"/>
</g>
<defs>
<clipPath id="clip0_1190_429">
<rect width="24" height="24" fill="white" transform="translate(13 13)"/>
</clipPath>
</defs>
</svg>
