<svg width="23" height="22" viewBox="0 0 23 22" fill="none" xmlns="http://www.w3.org/2000/svg">
<path d="M2.60007 14.4473L2.48372 14.2422C2.70436 14.0189 2.97675 13.8563 3.27553 13.7694L2.60007 14.4473ZM11.2768 10.3777L19.1745 4.49876V4.5836H19.1971V4.6746L19.1616 4.70082C19.0997 4.74632 12.9873 9.25093 11.313 10.3784H11.2745M7.82542 12.0057C8.33867 11.7294 8.88182 11.5154 9.4438 11.3679L8.34222 12.4753L7.82542 12.0057ZM8.83106 13.1293L9.08643 13.3607L6.11563 13.3676L7.13939 12.4214C7.31014 12.3041 7.48921 12.19 7.68489 12.0774L8.23342 12.5795L7.68414 13.1301H7.76951L8.83106 13.1293ZM9.89864 12.9604H8.8711L8.46159 12.5856L9.74602 11.2954C9.78078 11.2877 9.81402 11.2784 9.84953 11.2715L10.5091 11.9262L9.89864 12.9604ZM10.0497 11.2337C10.3599 11.1815 10.6727 11.1473 10.9866 11.1311L10.6005 11.782L10.0497 11.2337ZM8.35808 12.6944L8.65275 12.9635H8.0876L8.35808 12.6944ZM11.5495 12.9566H10.4071L10.8272 12.237L11.5495 12.9566ZM8.20622 16.7185L10.3066 13.1247H11.9484L10.9111 12.0913L11.316 11.3972L11.6938 11.4088L14.855 16.8118L14.8082 16.8311L14.8543 16.9414C14.8044 16.9722 14.7568 17.0062 14.71 17.0417L14.6216 16.9591L14.2846 17.3201L14.3715 17.401C14.3533 17.4288 14.3352 17.4581 14.3163 17.4913L14.2037 17.4465L14.0232 17.9093L14.1372 17.9532C14.1312 17.9848 14.1252 18.0172 14.1206 18.0527H13.996V18.2262L9.34256 18.2378V18.062H9.2058C9.19736 18.0134 9.18652 17.9652 9.17332 17.9177L9.29723 17.8645L9.09776 17.4111L8.97839 17.4643C8.96554 17.4435 8.9527 17.4234 8.93985 17.4049L9.03354 17.3147L8.68675 16.9607L8.59533 17.0501C8.55377 17.0185 8.50995 16.9892 8.46613 16.9614L8.51297 16.8442L8.20622 16.7185ZM15.6529 17.9347C15.7196 17.9364 15.7843 17.9581 15.839 17.9971C15.8937 18.0362 15.9359 18.0908 15.9603 18.1542C15.9847 18.2176 15.9903 18.287 15.9762 18.3536C15.9622 18.4202 15.9293 18.4811 15.8815 18.5287C15.8338 18.5763 15.7733 18.6084 15.7077 18.6211C15.6422 18.6338 15.5744 18.6264 15.5129 18.6C15.4514 18.5736 15.3989 18.5292 15.362 18.4724C15.325 18.4157 15.3053 18.3491 15.3053 18.281C15.3058 18.2349 15.3152 18.1894 15.3329 18.1471C15.3507 18.1048 15.3764 18.0664 15.4087 18.0343C15.441 18.0021 15.4792 17.9767 15.5211 17.9597C15.563 17.9426 15.6078 17.9341 15.6529 17.9347ZM7.31619 18.281C7.31453 18.2105 7.33351 18.1411 7.37068 18.0816C7.40785 18.0222 7.46153 17.9754 7.52488 17.9472C7.58822 17.9191 7.65835 17.9108 7.7263 17.9236C7.79426 17.9363 7.85696 17.9694 7.9064 18.0186C7.95584 18.0679 7.98978 18.1311 8.00388 18.2001C8.01797 18.2691 8.01159 18.3409 7.98555 18.4062C7.95951 18.4715 7.91498 18.5275 7.85766 18.5668C7.80034 18.6062 7.73283 18.6272 7.66374 18.6273C7.57269 18.6283 7.48496 18.5924 7.41981 18.5275C7.35465 18.4626 7.31738 18.3739 7.31619 18.281ZM7.69396 11.2476L8.9595 8.46122L10.9647 10.3939C9.8291 10.4496 8.71638 10.74 7.69396 11.2476ZM18.0132 5.02087L11.1113 10.1586L9.22243 8.33628L18.0132 5.02087ZM4.19201 15.5679L4.93622 14.2931L5.16742 14.4867L5.27848 14.3031L6.03403 15.5933L6.02345 15.598L6.03705 15.6319C6.02938 15.6358 6.02227 15.6407 6.01589 15.6465L5.9902 15.6226L5.8731 15.7468L5.89954 15.7715V15.7753L5.86554 15.763L5.80283 15.9211L5.83834 15.9342C5.83798 15.9355 5.83798 15.9368 5.83834 15.9381H5.80056V15.9897H4.5116V15.9396H4.4708C4.4708 15.9334 4.4708 15.928 4.4708 15.9219L4.50858 15.9064L4.43907 15.7522L4.41716 15.7622L4.43454 15.7445L4.31516 15.6226L4.28721 15.6496L4.27058 15.6381L4.28494 15.6018L4.19201 15.5679ZM6.29016 16.1694C6.26027 16.1694 6.23105 16.1604 6.20621 16.1434C6.18136 16.1265 6.16199 16.1024 6.15055 16.0742C6.13911 16.046 6.13612 16.015 6.14195 15.9851C6.14778 15.9552 6.16217 15.9277 6.18331 15.9061C6.20444 15.8845 6.23136 15.8699 6.26068 15.8639C6.28999 15.858 6.32037 15.861 6.34798 15.8727C6.37559 15.8844 6.3992 15.9041 6.4158 15.9295C6.4324 15.9549 6.44127 15.9847 6.44127 16.0152C6.44127 16.0561 6.42534 16.0953 6.39701 16.1242C6.36867 16.1532 6.33023 16.1694 6.29016 16.1694ZM4.01597 16.1694C3.98608 16.1694 3.95686 16.1604 3.93201 16.1434C3.90716 16.1265 3.8878 16.1024 3.87636 16.0742C3.86492 16.046 3.86193 16.015 3.86776 15.9851C3.87359 15.9552 3.88798 15.9277 3.90911 15.9061C3.93025 15.8845 3.95717 15.8699 3.98649 15.8639C4.0158 15.858 4.04618 15.861 4.07379 15.8727C4.1014 15.8844 4.125 15.9041 4.14161 15.9295C4.15821 15.9549 4.16707 15.9847 4.16707 16.0152C4.16707 16.0561 4.15115 16.0953 4.12282 16.1242C4.09448 16.1532 4.05604 16.1694 4.01597 16.1694ZM1.74933 15.0057C1.76188 15.0058 1.77411 15.0098 1.78446 15.017C1.79481 15.0243 1.80283 15.0345 1.80749 15.0464C1.81215 15.0583 1.81326 15.0713 1.81066 15.0838C1.80807 15.0964 1.80189 15.1078 1.79291 15.1168C1.78393 15.1257 1.77255 15.1318 1.76021 15.1341C1.74787 15.1365 1.73513 15.135 1.72359 15.13C1.71205 15.125 1.70223 15.1165 1.69539 15.1058C1.68854 15.0951 1.68496 15.0825 1.68511 15.0697C1.68521 15.0612 1.68695 15.0528 1.69023 15.0449C1.69351 15.0371 1.69827 15.03 1.70423 15.0241C1.71019 15.0182 1.71725 15.0135 1.72498 15.0103C1.73272 15.0071 1.74099 15.0056 1.74933 15.0057ZM1.95484 14.944L1.89439 14.883L1.88079 14.8962C1.87814 14.8942 1.87536 14.8924 1.87248 14.8908L1.88004 14.873L1.83773 14.8553L2.1611 14.2931L2.31901 14.4242L2.42252 14.3039L2.75118 14.8669H2.74589L2.75269 14.883L2.74212 14.8908L2.72852 14.8784L2.6711 14.9401L2.68394 14.9525L2.66732 14.9455L2.63558 15.0226L2.65296 15.0303H2.63407V15.0643H1.99186V15.0396H1.9707C1.971 15.0368 1.971 15.0339 1.9707 15.0311L1.98733 15.0234L1.95257 14.9463H1.94275L1.95484 14.944ZM2.88643 15.0057C2.89894 15.006 2.91109 15.0101 2.92134 15.0174C2.93159 15.0247 2.93949 15.035 2.94404 15.0469C2.94859 15.0588 2.94958 15.0718 2.94691 15.0843C2.94423 15.0968 2.93799 15.1082 2.92898 15.117C2.91998 15.1259 2.9086 15.1319 2.89628 15.1342C2.88396 15.1365 2.87126 15.135 2.85976 15.1299C2.84827 15.1249 2.8385 15.1164 2.83168 15.1057C2.82486 15.095 2.8213 15.0825 2.82145 15.0697C2.82184 15.0524 2.82889 15.036 2.84105 15.0241C2.85322 15.0121 2.86952 15.0055 2.88643 15.0057ZM2.99749 14.2846L3.5581 13.7224C3.59059 13.7224 3.62157 13.7139 3.65557 13.7139H3.67144L4.24112 14.2792L2.99749 14.2846ZM1.51662 15.1283V15.1368L1.5 15.1437L1.53324 15.2208L1.54458 15.2162L1.53627 15.2239L1.59595 15.2856L1.61031 15.271L1.61862 15.2764L1.61107 15.2949L1.68662 15.328L1.69493 15.308V15.3296H1.77955V15.3088H1.78408L1.7924 15.328L1.86795 15.2956L1.85964 15.2764L1.86871 15.2702L1.88457 15.2841L1.94199 15.2224L1.92764 15.2077L1.94728 15.2154L1.97146 15.1561H2.63181L2.67563 15.2185L2.68545 15.2139L2.67714 15.2216L2.73683 15.2818L2.75118 15.2687C2.75427 15.2699 2.75709 15.2717 2.75949 15.2741L2.75118 15.2956L2.83127 15.328L2.83883 15.3088V15.3303H2.9242V15.3103L2.93251 15.3296L3.00807 15.2972L2.99976 15.2771L3.00958 15.2702L3.02469 15.2848L3.08287 15.2232L3.06776 15.2085L3.08816 15.2162L3.11913 15.1391L3.09949 15.1321H3.12896V15.0465H3.1078C3.10816 15.0437 3.10816 15.0409 3.1078 15.0381L3.12442 15.0303L3.08967 14.9532L3.07984 14.9579L3.0874 14.9509L3.02771 14.8884L3.01411 14.9031L3.00656 14.8962L3.01336 14.8792L2.9378 14.8468L2.93025 14.8645V14.8329H2.84563V14.8507H2.83958L2.83278 14.8329H2.82749L2.60838 14.4473H2.68394L4.64836 14.4419L3.94041 13.7401C4.26744 13.8156 4.57143 13.9715 4.82591 14.1944L4.03259 15.5316H3.93512V15.5687H3.92379L3.90943 15.5339L3.75152 15.6003L3.76664 15.6342C3.75925 15.6383 3.75218 15.6429 3.74548 15.6481L3.71979 15.6242L3.60344 15.7476L3.62988 15.773C3.6302 15.7743 3.6302 15.7756 3.62988 15.7769L3.59588 15.7638L3.53393 15.9226L3.56868 15.9357C3.56897 15.937 3.56897 15.9383 3.56868 15.9396H3.53166V16.1093H3.56944C3.5698 16.1154 3.5698 16.1216 3.56944 16.1278L3.53468 16.1424L3.60268 16.2967L3.62535 16.2866L3.60797 16.3036L3.72659 16.4255L3.75606 16.3977L3.77192 16.4085L3.75681 16.4455L3.91548 16.5103L3.93134 16.471H3.93739V16.5134H4.10814V16.4717H4.11721L4.13307 16.5111L4.29098 16.4455L4.27436 16.407L4.2925 16.3938L4.32347 16.4231L4.44058 16.2982L4.41036 16.2689L4.44889 16.2836L4.49574 16.1663L5.82096 16.1625L5.82474 16.1717L5.8799 16.2951L5.90181 16.2851L5.88443 16.3028L6.00305 16.4231L6.03252 16.3954L6.04838 16.4062L6.03327 16.444L6.19194 16.508L6.20705 16.4694H6.21385V16.5118H6.38384V16.4694H6.39291L6.40953 16.5088L6.56669 16.4432L6.55082 16.4039L6.56895 16.3908L6.59993 16.4201L6.71024 16.2982L6.68002 16.2689L6.71931 16.2836L6.78202 16.1247L6.74273 16.11H6.78428V15.9404H6.74348C6.74348 15.9342 6.74348 15.9288 6.74348 15.9226L6.78126 15.9064L6.71251 15.7522L6.68984 15.7622L6.70722 15.7445L6.58784 15.6226L6.56064 15.6496C6.55539 15.6456 6.54983 15.642 6.54402 15.6388L6.55837 15.6034L6.39971 15.5386L6.38611 15.5733H6.3778V15.527H6.2078V15.5633H6.19647L6.18287 15.5316H6.1738L5.37821 14.1388L5.38955 14.1211C5.53583 13.9079 5.69773 13.7063 5.87385 13.518L9.46798 13.5095L9.39998 13.4447L9.05092 13.1247H9.79891L7.72116 16.6267H7.40005V16.7494C7.35547 16.7555 7.31468 16.7632 7.27463 16.7725L7.22854 16.6607L6.77522 16.8512L6.82206 16.9622C6.77224 16.9927 6.72406 17.0259 6.67775 17.0617L6.59011 16.98L6.25238 17.3401L6.33927 17.4172C6.32113 17.445 6.30376 17.4743 6.28487 17.5067L6.17154 17.462L5.9902 17.9247L6.10505 17.9694C6.09825 18.001 6.09296 18.0327 6.08767 18.0689H5.96452V18.5609H6.09145C6.09943 18.6114 6.11028 18.6614 6.12394 18.7105L6.00683 18.7622L6.20554 19.2134L6.32416 19.1617C6.337 19.1818 6.3506 19.2003 6.3642 19.2195L6.27127 19.3098L6.61655 19.6638L6.71251 19.5704C6.75482 19.6013 6.79788 19.6298 6.8417 19.656L6.79108 19.7802L7.2497 19.9653L7.30108 19.8388C7.33583 19.8458 7.3721 19.8527 7.41063 19.8581V20H7.90551V19.8596C7.9448 19.8535 7.98107 19.845 8.02187 19.8365L8.07626 19.9661L8.53337 19.7764L8.47897 19.646C8.52568 19.6169 8.57083 19.5852 8.61421 19.5512L8.71848 19.6483L9.05696 19.2866L8.95572 19.1918C8.97234 19.1663 8.98972 19.1386 9.00634 19.1085L9.13705 19.1602L9.2942 18.7607L14.0421 18.7483L14.2392 19.1979L14.3579 19.1455C14.3707 19.1648 14.3836 19.1841 14.3979 19.2041L14.305 19.2943L14.6495 19.6476L14.7455 19.5535C14.7873 19.5846 14.8306 19.6134 14.8754 19.6398L14.8248 19.764L15.2834 19.9499L15.3355 19.8226C15.3695 19.8303 15.4058 19.8365 15.4443 19.8419V19.9815H15.9392V19.838C15.9785 19.8311 16.0148 19.8242 16.0556 19.8149L16.11 19.9452L16.5671 19.7548L16.5119 19.6237C16.5588 19.5951 16.6041 19.5627 16.6479 19.5296L16.7522 19.6267L17.0907 19.265L16.9887 19.1702C17.0061 19.144 17.0227 19.1177 17.0393 19.0877L17.1708 19.1393L17.3506 18.6766L17.2229 18.6257C17.2289 18.5964 17.2342 18.5656 17.2395 18.5324H17.3785V18.0396H17.2425C17.235 17.9902 17.2244 17.9417 17.2123 17.8931L17.3332 17.8406L17.1337 17.3887L17.0144 17.4411C17.0013 17.4206 16.9884 17.4013 16.9758 17.3833L17.0688 17.2931L16.7235 16.9391L16.6321 17.0278C16.5903 16.9958 16.547 16.9662 16.5021 16.9391L16.5489 16.8234L16.0903 16.6368L16.0488 16.7532C16.0118 16.744 15.9732 16.7363 15.9347 16.7301V16.6067H15.4398V16.7278C15.3975 16.7339 15.3559 16.7424 15.3159 16.7525L15.2698 16.6429L15.2441 16.653L11.9484 10.8319C13.6106 9.69129 17.8878 6.54863 19.2017 5.58076L19.2221 13.4008C19.2221 13.4464 19.2398 13.4901 19.2714 13.5224C19.303 13.5547 19.3459 13.5728 19.3906 13.5728C19.4352 13.5728 19.4781 13.5547 19.5097 13.5224C19.5413 13.4901 19.559 13.4464 19.559 13.4008L19.5379 5.33321L19.6021 5.28616L19.7419 5.18128L19.5371 4.90519V4.5782H19.661V4.1363L19.6746 4.12627H20.1665V3.61111L21.0852 3.36046C21.1157 3.40663 21.1613 3.44006 21.2139 3.45464C21.2665 3.46922 21.3225 3.46396 21.3716 3.43984C21.4207 3.41572 21.4597 3.37435 21.4813 3.3233C21.503 3.27225 21.5059 3.21495 21.4895 3.16189C21.4732 3.10883 21.4386 3.06356 21.3922 3.03438C21.3458 3.0052 21.2907 2.99407 21.2369 3.00301C21.1831 3.01196 21.1343 3.04038 21.0993 3.08309C21.0644 3.12579 21.0457 3.17991 21.0467 3.23553L20.035 3.51316V3.99748H19.6573V3.54555H19.1737V4.29439L18.8216 4.42627L8.72679 8.23603L8.75248 8.2607L7.30108 11.4581C6.4209 11.9584 5.6399 12.622 4.99817 13.4147C4.50254 13.0838 3.99103 12.9412 3.47122 12.9867C2.50563 13.0707 1.89439 13.7933 1.86946 13.8242L1.75764 13.9576L2.10217 14.2453L1.75009 14.8391H1.70097V14.8568H1.69569L1.68889 14.8406L1.61333 14.8753L1.62089 14.8915L1.61031 14.8985L1.59747 14.8861L1.53929 14.9478L1.55289 14.9602L1.53702 14.954L1.50529 15.0311L1.52267 15.0373H1.50453V15.1229L1.51662 15.1283Z" fill="black"/>
</svg>
