<svg width="64" height="44" viewBox="0 0 64 44" fill="none" xmlns="http://www.w3.org/2000/svg">
<g clip-path="url(#clip0_918_10591)">
<path opacity="0.4" d="M14.7222 29.9271C19.4954 27.0175 22.6579 22 22.6579 16.2937C22.6579 7.29473 14.5546 0 0.00878906 0C9.68153 0 17.5232 7.29473 17.5232 16.2937C17.5213 17.0772 17.4593 17.8593 17.338 18.6332C17.4604 19.2851 17.5224 19.947 17.5232 20.6105C17.5232 24.8057 15.0807 28.5525 11.2481 31.0494C15.0425 33.9055 17.7142 38.0651 18.2668 42.5838C18.3345 43.0557 18.3679 43.532 18.3667 44.0089H23.4985C23.3897 38.2996 19.804 33 14.7222 29.9271Z" fill="#79C08F"/>
<path d="M0 32.5963V34.2381C6.63072 34.2381 11.1482 38.3145 11.9829 42.5809C11.4831 39.7511 10.0034 37.193 7.80819 35.3638C5.61298 33.5347 2.84536 32.5537 0 32.5963Z" fill="#878787"/>
<path d="M11.4686 18.6571C11.6207 17.8747 11.6965 17.0792 11.6949 16.2819C11.6949 13.5118 10.7926 10.8903 8.98792 8.91293C6.16506 7.62156 3.09878 6.96319 0 6.9831V11.5078C6.72772 11.5197 10.5427 14.6994 11.4686 18.6571Z" fill="#878787"/>
<path d="M9.5874 29.9272C10.1576 30.2716 10.7072 30.6517 11.2392 31.0495C15.0601 28.5526 17.5143 24.8147 17.5143 20.6106C17.5135 19.9471 17.4515 19.2852 17.3291 18.6333C16.6032 23.3539 13.6934 27.4214 9.5874 29.9272Z" fill="#878787"/>
<path d="M11.2392 31.0493C10.7049 31.3959 10.1536 31.715 9.5874 32.0053C14.243 34.3597 17.6348 38.2787 18.2579 42.5837C17.7112 38.0709 15.0336 33.9144 11.2392 31.0493Z" fill="#D01210"/>
<path d="M16.8295 16.2937C16.8295 16.4698 16.8295 16.645 16.8295 16.8192C17.0498 17.4081 17.2199 18.015 17.338 18.6332C17.4593 17.8593 17.5213 17.0772 17.5232 16.2937C17.5232 7.29473 9.68153 0 0.00878906 0L5.14054 5.41241C12.941 5.41241 16.8295 10.5339 16.8295 16.2937Z" fill="#D01210"/>
<path d="M18.258 42.5837C17.6349 38.2787 14.2431 34.3596 9.58753 32.0052C10.1537 31.7149 10.705 31.3958 11.2393 31.0492C10.7073 30.6514 10.1577 30.2714 9.58753 29.927C13.7023 27.4212 16.5974 23.3537 17.3293 18.6449C17.2112 18.0267 17.0411 17.4198 16.8208 16.8309C16.8208 16.6547 16.8208 16.4796 16.8208 16.3054C16.8208 10.5456 12.9323 5.42413 5.12884 5.42413L-0.00878906 0.0117188V5.41226C4.04136 5.41226 7.04517 6.79283 8.97913 8.92454C10.7838 10.9019 11.6861 13.5235 11.6861 16.2935C11.6877 17.0908 11.6119 17.8863 11.4598 18.6687C10.5339 23.4368 6.71892 27.1836 -0.00291399 27.1836V32.6079C2.84245 32.5654 5.61007 33.5463 7.80528 35.3755C10.0005 37.2046 11.4802 39.7627 11.98 42.5926C12.072 43.0589 12.1193 43.5332 12.1211 44.0088H18.3668C18.3651 43.5317 18.3287 43.0554 18.258 42.5837Z" fill="#75B72A"/>
<path d="M40.134 20.37L39.7695 20.3255L39.4256 20.2572L39.1053 20.1681L38.8114 20.0612L38.5439 19.9336L38.3 19.7881L38.0795 19.6278L37.8855 19.4526L37.7151 19.2626L37.5681 19.0577L37.4476 18.835L37.3477 18.5975L37.2742 18.3422L37.2272 18.0661L37.2095 17.7692V17.4188L37.2507 17.0893L37.3212 16.7924L37.4182 16.4955L37.5417 16.2224L37.6945 15.9641L37.8767 15.7176L38.0589 15.5068L38.4175 15.3139L38.9025 15.1535L39.4462 15.0615L40.0341 15.0288H40.6895C41.1774 15.0556 41.6653 15.0912 42.1591 15.1298L43.0761 15.1981L43.3347 15.2159L45.3039 9.3314L39.5697 9.28687L38.4234 9.3314L37.3359 9.46203L36.3101 9.68174L35.3461 9.97863L34.4644 10.3705L34.0411 10.5991L33.6385 10.8456L33.2505 11.1128L32.8831 11.4097L32.5363 11.7066L32.2071 12.0331L31.6986 12.6269L31.2607 13.2623L30.8904 13.9363L30.5964 14.6518L30.3643 15.4029L30.1967 16.1927L30.0997 17.0151L30.0645 17.8701L30.1027 18.7875L30.2173 19.6782L30.4054 20.5155L30.6729 21.3052L31.0167 22.0534L31.437 22.7541L31.9338 23.4043L32.501 23.9981L33.227 24.5919L33.7443 24.9452L34.291 25.2569L34.8788 25.533L35.4666 25.7646C35.9221 25.9202 36.3876 26.0442 36.8598 26.1357L38.5292 26.3435C38.8231 26.3584 39.117 26.3673 39.411 26.3673C39.7049 26.3673 39.9547 26.3673 40.2045 26.3435H47.7964V20.3878H40.5249L40.134 20.37Z" fill="#878787"/>
<path d="M46.8236 25.4114H40.1665C39.8961 25.4292 39.6404 25.4351 39.3846 25.4351C39.1289 25.4351 38.8468 25.4351 38.5969 25.4144L36.9922 25.2154C36.5789 25.1328 36.1714 25.0227 35.7724 24.8859L35.2257 24.6751L34.7114 24.4316L34.2294 24.1525L33.7738 23.8408L33.3564 23.4905L33.1566 23.3094L32.6511 22.7809L32.2219 22.2138L31.8575 21.62L31.5636 20.9669L31.299 20.2573L31.1315 19.515L31.0316 18.7253L31.0051 17.8821L31.0345 17.1013L31.1256 16.362L31.2755 15.6584L31.4813 14.9963L31.7487 14.3728L32.075 13.779L32.4571 13.2268L32.9009 12.7131L33.4887 12.152L34.153 11.6651L34.8877 11.2435L35.6901 10.8961L36.5719 10.62L37.5124 10.4211L38.5205 10.2994L39.5933 10.2578L43.9844 10.2934L42.6736 14.2095L42.2415 14.1768C41.7448 14.1382 41.251 14.0996 40.7455 14.0729H40.0489H39.6991L39.0349 14.1442L38.3883 14.2986L38.0679 14.4173L37.774 14.5628L37.5065 14.7202L37.1773 15.0824L36.9305 15.4119L36.7247 15.7593L36.5572 16.1215L36.4279 16.5075L36.3338 16.9113L36.278 17.3299L36.2603 17.7693L36.2868 18.1642L36.3485 18.5382L36.4484 18.8975L36.5866 19.2359L36.76 19.5536L36.9657 19.8505L37.2038 20.1237L37.4713 20.3671L37.7652 20.5868L38.0885 20.7798L38.4353 20.9461L38.8056 21.0856L39.1995 21.1955L39.6168 21.2786L40.0489 21.3291L46.8295 21.3528L46.8236 25.4114Z" fill="white" stroke="#878787" stroke-width="0.25" stroke-miterlimit="10"/>
<path d="M46.7472 9.37891L44.9631 15.4237L49.4483 15.5068V26.3554H55.6352V15.5187H60.0028V9.42047L46.7472 9.37891Z" fill="#878787"/>
<path d="M59.0476 14.5537H54.683V25.3934H50.4036V14.5597L46.2358 14.4825L47.4585 10.3438L59.0476 10.3823V14.5537Z" fill="white"/>
<path fill-rule="evenodd" clip-rule="evenodd" d="M34.6468 34.5736H31.1345L30.7113 33.4602H27.7428L27.3371 34.5736H24.0012L27.0521 27.644H31.546L34.6468 34.5736ZM30.1646 31.7739L29.2564 29.3987H29.2065L28.31 31.7739H30.1646Z" fill="#878787"/>
<path fill-rule="evenodd" clip-rule="evenodd" d="M43.814 34.3211C43.332 34.431 42.4267 34.52 41.8271 34.5883C41.1671 34.6577 40.5039 34.6913 39.8403 34.6893C37.8808 34.6893 36.4573 34.2756 35.5697 33.4483C35.2474 33.1583 34.9913 32.801 34.8192 32.4011C34.6472 32.0012 34.5633 31.5684 34.5733 31.1325C34.5735 30.7338 34.6587 30.3399 34.8231 29.9775C35.1279 29.314 35.6458 28.7741 36.2927 28.4455C37.2391 27.9289 38.5127 27.6707 40.1136 27.6707C40.5868 27.6707 41.0571 27.6885 41.5273 27.7241C41.9976 27.7597 42.5208 27.825 43.1027 27.923V29.7578C42.8304 29.6572 42.5515 29.5759 42.268 29.5144C41.7849 29.4107 41.2923 29.359 40.7984 29.36C40.0894 29.3229 39.386 29.5052 38.7822 29.8825C38.5456 30.0349 38.3532 30.2479 38.2247 30.4998C38.0961 30.7517 38.036 31.0335 38.0503 31.3165C38.0503 31.8717 38.2384 32.0766 38.6382 32.3676C39.0343 32.6274 39.5007 32.7561 39.9725 32.7357C40.0783 32.7415 40.1842 32.7415 40.29 32.7357C40.3664 32.7357 40.4604 32.712 40.5692 32.6912V30.8267H43.8022V34.3211H43.814Z" fill="#878787"/>
<path fill-rule="evenodd" clip-rule="evenodd" d="M53.8071 34.5735H50.3212L49.9979 32.8753C49.9764 32.7519 49.9237 32.6362 49.8449 32.5395C49.7661 32.4427 49.6639 32.3682 49.5482 32.3231C49.3468 32.2406 49.1306 32.2011 48.9134 32.2073H48.1668V34.5824H45.0308V27.6351H50.0479C50.8064 27.6317 51.5586 27.7748 52.264 28.0567C53.0664 28.4278 53.5602 28.8583 53.5602 29.6094C53.5628 29.8403 53.5108 30.0685 53.4085 30.2751C53.3063 30.4816 53.1568 30.6605 52.9723 30.797C52.5501 31.1105 52.0511 31.3015 51.5292 31.3492C51.8694 31.3945 52.1983 31.5032 52.4991 31.6699C52.6787 31.7695 52.8371 31.9039 52.9652 32.0653C53.0933 32.2268 53.1886 32.4123 53.2457 32.611L53.8188 34.5795L53.8071 34.5735ZM50.1978 30.0073C50.2004 29.8977 50.1719 29.7897 50.1157 29.6961C50.0594 29.6024 49.9777 29.527 49.8804 29.4788C49.5694 29.339 49.2296 29.2769 48.8899 29.2977H48.0081V30.7525H48.8281C49.0158 30.7572 49.2034 30.7473 49.3895 30.7228C49.9186 30.6337 50.186 30.3932 50.186 30.0073H50.1978Z" fill="#878787"/>
<path fill-rule="evenodd" clip-rule="evenodd" d="M64 31.18C64.0179 31.6826 63.9105 32.1818 63.6876 32.6316C63.4647 33.0813 63.1335 33.4673 62.7244 33.7541C61.876 34.3775 60.6827 34.6893 59.1445 34.6893C57.6064 34.6893 56.4131 34.3775 55.5647 33.7541C55.1687 33.4546 54.8472 33.0661 54.6258 32.6193C54.4043 32.1724 54.2891 31.6796 54.2891 31.18C54.2891 30.6803 54.4043 30.1875 54.6258 29.7407C54.8472 29.2939 55.1687 28.9053 55.5647 28.6059C56.417 27.9824 57.6103 27.6707 59.1445 27.6707C60.6788 27.6707 61.8721 27.9824 62.7244 28.6059C63.1335 28.8926 63.4647 29.2786 63.6876 29.7284C63.9105 30.1782 64.0179 30.6773 64 31.18ZM60.4907 31.18C60.5107 30.7693 60.4425 30.3591 60.2908 29.9775C60.19 29.7606 60.0265 29.5796 59.8219 29.4582C59.6174 29.3369 59.3812 29.2809 59.1445 29.2976C58.9088 29.277 58.6724 29.3303 58.4678 29.4504C58.2631 29.5705 58.1002 29.7515 58.0012 29.9686C57.7347 30.7507 57.7347 31.6003 58.0012 32.3824C58.1162 32.5867 58.2827 32.7566 58.4837 32.8748C58.6848 32.993 58.9133 33.0553 59.146 33.0553C59.3787 33.0553 59.6072 32.993 59.8083 32.8748C60.0094 32.7566 60.1759 32.5867 60.2908 32.3824C60.4402 32.0002 60.5083 31.5905 60.4907 31.18Z" fill="#878787"/>
</g>
<defs>
<clipPath id="clip0_918_10591">
<rect width="64" height="44" fill="white"/>
</clipPath>
</defs>
</svg>
